# xmcd
#
# Track frame offsets: 
#        150
#        11663
#        24581
#        33249
#        43097
#        54100
#        64977
#        74681
#        86101
#        96531
#        107215
#        119146
#        130744
#        143478
#        155421
#        168172
#        178877
#        190300
#        202375
#        214306
#        225368
#        237771
#        249073
#        262743
#
# Disc length: 3667 seconds
#
# Revision: 2
# Processed by: cddbd v1.5.2PL0 Copyright (c) Steve Scherf et al.
# Submitted via: ExactAudioCopyFreeDBPlugin 1.0
#
DISCID=590e5118
DTITLE=Jim Reeves - Jim Reeves - Eight Classic Albums - Disc 1
DYEAR=2012
DGENRE=Country
TTITLE0=Roly Poly
TTITLE1=Have I Told You Lately That I Love You
TTITLE2=Breeze (Blow My Baby Back To Me)
TTITLE3=Waltzing On Top Of The World
TTITLE4=Oklahoma Hills
TTITLE5=Love Me A Little Bit More
TTITLE6=Tweedle O'Twill
TTITLE7=Each Time You Leave
TTITLE8=Ichabod Crane
TTITLE9=Your Old Love Letters
TTITLE10=Beyond The Shadow Of A Doubt
TTITLE11=Highway To Nowhere
TTITLE12=Bimbo
TTITLE13=How Many
TTITLE14=Echo Bonita
TTITLE15=Where Does A Broken Heart Go
TTITLE16=Penny Candy
TTITLE17=Mother Went A Walkin'
TTITLE18=Mexican Joe
TTITLE19=Then I'll Stop Loving You
TTITLE20=Drinking Tequila
TTITLE21=Gypsy Heart
TTITLE22=What Were You Doing Last Night
TTITLE23=Let Me Love Just A Little
EXTD=
EXTT0=
EXTT1=
EXTT2=
EXTT3=
EXTT4=
EXTT5=
EXTT6=
EXTT7=
EXTT8=
EXTT9=
EXTT10=
EXTT11=
EXTT12=
EXTT13=
EXTT14=
EXTT15=
EXTT16=
EXTT17=
EXTT18=
EXTT19=
EXTT20=
EXTT21=
EXTT22=
EXTT23=
PLAYORDER=
